<svg width="32" height="32" viewBox="0 0 32 32" fill="none" xmlns="http://www.w3.org/2000/svg">
  <mask id="lineCutout">
    <rect x="3" y="3" width="26" height="26" rx="5.75" fill="white"/>
    <g stroke="black" stroke-width="1.5" stroke-linecap="round" stroke-linejoin="round" fill="none">
      <path d="M7 12.25
        C8.125 11.5 9.375 10.625 10.5 10
        C11.25 9.5 11.875 9.375 12.375 9.5
        C12.625 9.625 12.75 10 12.625 10.5
        C12.5 11 12.375 11.375 12.625 11.5
        C13 11.75 13.75 11.375 14.375 11
        C15 10.75 15.625 10.75 16.25 10.875
        C17.125 11 18 11.25 18.875 11.25
        C20.5 11.375 22.5 11.125 24.5 10.625"/>
      <path d="M7.125 15.625
        C8 15.25 9.125 14.875 10.25 14.75
        C11 14.625 11.75 14.75 12.125 15.125
        C12.625 15.5 12.875 15.875 13.5 15.875
        C14.25 16 15.25 15.75 16.375 15.375
        C17.5 15.125 18.5 14.75 19.25 14.5
        C19.75 14.375 20.125 14.25 20.25 14.5
        C20.5 14.75 20.25 15.125 20 15.5
        C19.75 15.75 19.75 16 20 16.125
        C20.5 16.25 21.875 16 24.5 15.125"/>
      <path d="M7.125 19
        C8.5 18.75 9.75 18.5 11 18.125
        C11.875 18 12.5 17.875 13.125 18.125
        C13.5 18.25 13.875 18.625 14.125 19
        C14.625 19.375 15 19.625 15.625 19.5
        C16.375 19.375 17.125 19 18 18.75
        C18.5 18.5 19.125 18.5 19.5 18.625"/>
    </g>
  </mask>
  <rect x="3" y="3" width="26" height="26" rx="5.75" fill="black" mask="url(#lineCutout)"/>
</svg>
